PathFileType	4	(X/Y/Z)	S:\OneDrive - The University of Tokyo\ìåëÂéˆã∆\ÉoÉCÉÅÉJ\ë™íË\hirabayashi_2\Trimmed\Trimmed_BarL1Hirabayashi1.trc
DataRate	CameraRate	NumFrames	NumMarkers	Units	OrigDataRate	OrigDataStartFrame	OrigNumFrames
200.00	200.00	       24	12	mm	200.00	34	       265
Frame#	Time	BarR0			BarR50			BarR100			BarR130			BarR180			BarR230			BarL0			BarL50			BarL100			BarL130			BarL180			BarL230			
		X1	Y1	Z1	X2	Y2	Z2	X3	Y3	Z3	X4	Y4	Z4	X5	Y5	Z5	X6	Y6	Z6	X7	Y7	Z7	X8	Y8	Z8	X9	Y9	Z9	X10	Y10	Z10	X11	Y11	Z11	X12	Y12	Z12	

34	0.165	-576.29108	2755.24854	1664.35449	-605.69110	2306.26074	1662.12256	-637.78394	1851.69641	1661.83545	-661.38055	1349.21802	1661.62720	-690.47601	902.41083	1662.27527	-714.11658	454.45795	1663.81006	-1112.21484	2805.40723	1664.53955	-1138.94568	2354.25098	1648.47217	-1168.83618	1904.49829	1638.20715	-1196.54846	1404.10754	1637.21179	-1224.00110	953.34039	1648.66895	-1242.39185	507.41306	1667.06262	
35	0.170	-576.28876	2755.29932	1664.34070	-605.69812	2306.27734	1662.13025	-637.73920	1851.70911	1661.81482	-661.34344	1349.21680	1661.60632	-690.45081	902.42078	1662.27380	-714.07391	454.46396	1663.79895	-1112.20679	2805.42407	1664.53748	-1138.92114	2354.25171	1648.48523	-1168.74023	1904.40063	1638.24207	-1196.51477	1404.15442	1637.27124	-1223.97632	953.37115	1648.70593	-1242.38123	507.42441	1667.06287	
36	0.175	-576.28424	2755.29199	1664.34326	-605.67480	2306.27856	1662.12268	-637.71051	1851.73303	1661.83325	-661.27411	1349.23206	1661.62402	-690.42999	902.39307	1662.28857	-714.06372	454.45752	1663.80139	-1112.20203	2805.43457	1664.53894	-1138.92737	2354.25317	1648.52478	-1168.81250	1904.54700	1638.28015	-1196.52405	1404.16187	1637.31946	-1223.97668	953.37274	1648.73938	-1242.39197	507.41968	1667.05286	
37	0.180	-576.27173	2755.30249	1664.36328	-605.61804	2306.28369	1662.15869	-637.69043	1851.71619	1661.82520	-661.27155	1349.24060	1661.63831	-690.39355	902.43793	1662.29639	-714.05902	454.49481	1663.81030	-1112.22083	2805.46338	1664.54187	-1138.95105	2354.27344	1648.54932	-1168.79895	1904.55188	1638.34326	-1196.50513	1404.21790	1637.38794	-1223.99036	953.39587	1648.77637	-1242.38928	507.45932	1667.09119	
38	0.185	-576.28412	2755.32275	1664.34351	-605.60413	2306.30029	1662.14673	-637.68774	1851.73828	1661.84546	-661.22510	1349.24365	1661.65747	-690.39893	902.46051	1662.28662	-714.03809	454.46533	1663.82178	-1112.20850	2805.47510	1664.55164	-1138.94983	2354.28516	1648.59045	-1168.80017	1904.56934	1638.37927	-1196.55078	1404.18262	1637.44617	-1224.01038	953.39862	1648.82178	-1242.43469	507.45834	1667.09351	
39	0.190	-576.79852	2755.34912	1663.87097	-604.25415	2305.97290	1662.52893	-637.65997	1851.72961	1661.83118	-661.19769	1349.23669	1661.64465	-690.38019	902.43274	1662.29736	-714.05170	454.47678	1663.81958	-1112.20728	2805.52002	1664.55127	-1138.94849	2354.28711	1648.61694	-1168.82153	1904.63489	1638.39209	-1196.58533	1404.21826	1637.48181	-1224.04749	953.39374	1648.84424	-1242.44263	507.48859	1667.09595	
40	0.195	-576.27563	2755.29077	1664.33313	-605.63770	2306.27466	1662.14563	-637.62842	1851.70068	1661.83081	-661.21570	1349.22351	1661.61694	-690.41431	902.41046	1662.26953	-714.03308	454.45181	1663.81836	-1112.23584	2805.52905	1664.54480	-1139.00525	2354.31079	1648.61194	-1168.83838	1904.50513	1638.76965	-1196.61816	1404.20752	1637.52148	-1224.06226	953.40375	1648.86475	-1242.46423	507.49271	1667.08569	
41	0.200	-576.27832	2755.29150	1664.35559	-605.61182	2306.24023	1662.13757	-637.67438	1851.72620	1661.82104	-661.23712	1349.23816	1661.60010	-690.40833	902.43420	1662.26941	-714.06110	454.45230	1663.80737	-1112.23987	2805.51270	1664.54688	-1139.03406	2354.31250	1648.63062	-1168.88452	1904.55310	1638.77185	-1196.65955	1404.21118	1637.55518	-1224.08398	953.41333	1648.88916	-1242.50952	507.49518	1667.06274	
42	0.205	-576.86041	2755.34375	1663.85217	-604.31750	2305.95508	1662.52148	-637.69940	1851.72681	1661.83252	-661.28632	1349.22791	1661.60815	-690.42194	902.42657	1662.26624	-714.07092	454.45499	1663.80981	-1112.24316	2805.51807	1664.53455	-1139.06372	2354.31030	1648.62927	-1168.96069	1904.56665	1638.76514	-1196.66211	1404.22107	1637.56677	-1224.13452	953.37366	1648.89404	-1242.50317	507.45825	1667.06616	
43	0.210	-576.28943	2755.27515	1664.33557	-605.67786	2306.28662	1662.11804	-637.76752	1851.72278	1661.81519	-661.31146	1349.22791	1661.62366	-690.44324	902.40796	1662.28638	-714.06940	454.44821	1663.79578	-1112.26135	2805.48364	1664.56250	-1139.05640	2354.31128	1648.64282	-1168.96960	1904.59058	1638.80481	-1196.67371	1404.20947	1637.55286	-1224.11511	953.37201	1648.89539	-1242.45239	507.44363	1667.08545	
44	0.215	-576.33759	2755.29150	1664.36072	-605.73224	2306.25000	1662.14673	-637.79993	1851.72668	1661.82935	-661.34698	1349.24280	1661.64185	-690.46661	902.44702	1662.28943	-714.09412	454.45679	1663.82324	-1112.24805	2805.45679	1664.56372	-1139.04102	2354.29468	1648.64697	-1168.91956	1904.50586	1638.78955	-1196.66199	1404.17822	1637.55969	-1224.10022	953.34656	1648.89746	-1242.46240	507.42029	1667.08472	
45	0.220	-576.84009	2755.33545	1663.88391	-604.40491	2305.93555	1662.49719	-637.79614	1851.69775	1661.82471	-661.37549	1349.23730	1661.64661	-690.47839	902.43610	1662.29688	-714.09216	454.43149	1663.81421	-1112.24695	2805.46191	1664.54272	-1139.03870	2354.26538	1648.63000	-1168.86194	1904.49023	1638.42261	-1196.63159	1404.19141	1637.52185	-1224.06311	953.33875	1648.87073	-1242.45129	507.44037	1667.08801	
46	0.225	-576.85480	2755.34937	1663.85901	-604.38885	2305.93091	1662.51416	-637.80841	1851.71265	1661.83801	-661.39661	1349.21875	1661.63232	-690.50562	902.39319	1662.29297	-714.11108	454.45493	1663.80151	-1112.23364	2805.43335	1664.54980	-1139.00903	2354.24658	1648.60242	-1168.88867	1904.47791	1638.72925	-1196.59314	1404.17346	1637.50830	-1224.04041	953.32507	1648.85107	-1242.40967	507.36435	1667.06396	
47	0.230	-576.31335	2755.27295	1664.34778	-605.71283	2306.24658	1662.12000	-637.81512	1851.71558	1661.80737	-661.38184	1349.19141	1661.61121	-690.51025	902.42053	1662.27991	-714.09863	454.44186	1663.78894	-1112.21216	2805.43457	1664.54126	-1138.94690	2354.23999	1648.56470	-1168.86011	1904.55457	1638.33765	-1196.54871	1404.17688	1637.43726	-1223.99829	953.33215	1648.78540	-1242.39404	507.38159	1667.05310	
48	0.235	-576.29584	2755.27661	1664.34119	-605.70410	2306.23975	1662.12646	-637.79181	1851.72339	1661.82190	-661.35229	1349.20813	1661.62207	-690.47955	902.42877	1662.27783	-714.09296	454.44479	1663.79675	-1112.20947	2805.41626	1664.52576	-1138.94800	2354.22461	1648.54834	-1168.75854	1904.47449	1638.32202	-1196.47827	1404.18567	1637.38794	-1223.98340	953.34479	1648.77747	-1242.34534	507.36038	1667.05933	
49	0.240	-576.85309	2755.31934	1663.87561	-604.37433	2305.91772	1662.50061	-637.76251	1851.70667	1661.82813	-661.33636	1349.21436	1661.64404	-690.47729	902.39264	1662.27979	-714.11511	454.41788	1663.80750	-1112.19495	2805.39868	1664.54041	-1138.87610	2354.22827	1648.54077	-1168.71838	1904.48010	1638.30896	-1196.46045	1404.15027	1637.34607	-1223.95349	953.34387	1648.73792	-1242.33801	507.37878	1667.07898	
50	0.245	-576.28583	2755.25244	1664.36182	-605.66748	2306.27295	1662.14355	-637.75586	1851.69348	1661.82727	-661.30719	1349.21143	1661.62170	-690.47760	902.40900	1662.29004	-714.09113	454.46411	1663.80383	-1112.19031	2805.39063	1664.55823	-1138.88867	2354.19604	1648.50757	-1168.69067	1904.39539	1638.26428	-1196.40125	1404.10339	1637.30530	-1223.95227	953.35760	1648.70667	-1242.35583	507.39874	1667.05786	
51	0.250	-576.82611	2755.33740	1663.87842	-604.31921	2305.93848	1662.51563	-637.71381	1851.68005	1661.83228	-661.28473	1349.21057	1661.61475	-690.44885	902.41083	1662.29358	-714.09314	454.42987	1663.80066	-1112.17981	2805.41333	1664.56702	-1138.84180	2354.23950	1648.47986	-1168.71362	1904.45203	1638.20532	-1196.40857	1404.14868	1637.22168	-1223.92981	953.35962	1648.66858	-1242.35474	507.40747	1667.07739	
52	0.255	-576.82013	2755.32422	1663.87903	-604.29523	2305.88184	1662.49878	-637.69763	1851.74121	1661.79968	-661.26086	1349.20850	1661.60876	-690.43713	902.41339	1662.27185	-714.09448	454.44296	1663.80054	-1112.19714	2805.38696	1664.54004	-1138.90442	2354.22266	1648.46692	-1168.75598	1904.48804	1638.17029	-1196.42249	1404.16113	1637.19458	-1223.96790	953.34973	1648.63672	-1242.34790	507.42444	1667.06018	
53	0.260	-576.85840	2755.33667	1663.87280	-604.33356	2305.89673	1662.51550	-637.70203	1851.69885	1661.81042	-661.27399	1349.20056	1661.58643	-690.42023	902.41028	1662.27759	-714.08362	454.44708	1663.80139	-1112.18469	2805.40161	1664.54260	-1138.93042	2354.22949	1648.46130	-1168.81860	1904.45740	1638.17737	-1196.50391	1404.15210	1637.14771	-1223.98474	953.36884	1648.63501	-1242.37634	507.40488	1667.04639	
54	0.265	-576.83020	2755.34985	1663.88208	-604.35516	2305.90747	1662.50146	-637.69464	1851.68616	1661.80835	-661.26044	1349.19824	1661.61768	-690.43091	902.40295	1662.26758	-714.06482	454.44669	1663.80078	-1112.23987	2805.42480	1664.54578	-1138.97607	2354.23950	1648.44226	-1168.82434	1904.42419	1638.18652	-1196.55115	1404.15137	1637.15613	-1224.03125	953.36621	1648.62512	-1242.41284	507.39987	1667.05688	
55	0.270	-576.29083	2755.28882	1664.34900	-605.63287	2306.24048	1662.13440	-637.69971	1851.73560	1661.83398	-661.27386	1349.22803	1661.61194	-690.44495	902.37000	1662.27100	-714.06549	454.45486	1663.81189	-1112.23291	2805.42847	1664.55371	-1139.03552	2354.24609	1648.47107	-1168.94153	1904.54163	1638.17444	-1196.61084	1404.11768	1637.18225	-1224.06885	953.35858	1648.67566	-1242.43811	507.41937	1667.06604	
56	0.275	-576.83362	2755.32837	1663.86597	-604.32684	2305.94800	1662.51404	-637.71063	1851.70850	1661.83081	-661.31036	1349.21582	1661.65259	-690.44891	902.42474	1662.27368	-714.07660	454.45624	1663.81250	-1112.23730	2805.41211	1664.53625	-1139.11011	2354.24707	1648.48657	-1168.99658	1904.50806	1638.19495	-1196.67798	1404.14185	1637.24841	-1224.11755	953.35498	1648.68262	-1242.43774	507.42337	1667.07068	
57	0.280	-576.85785	2755.32666	1663.86572	-604.33887	2305.91895	1662.50476	-637.75958	1851.71667	1661.83630	-661.32764	1349.22681	1661.64148	-690.46417	902.41742	1662.30981	-714.05463	454.45041	1663.80237	-1112.25232	2805.42383	1664.54993	-1139.10889	2354.28223	1648.49597	-1169.02332	1904.49622	1638.22827	-1196.74463	1404.14551	1637.28577	-1224.15625	953.36139	1648.70313	-1242.46484	507.45422	1667.07373	
